<svg id="object" xmlns="http://www.w3.org/2000/svg" xmlns:xlink="http://www.w3.org/1999/xlink" viewBox="0 0 578 800"><defs><style>.cls-1{fill:#f7c973;}.cls-2{fill:#764b22;}.cls-3{fill:url(#GradientFill_4);}.cls-4{fill:url(#GradientFill_5);}.cls-5{fill:url(#GradientFill_6);}.cls-6{fill:url(#GradientFill_5-2);}.cls-7{fill:url(#GradientFill_6-2);}.cls-8{fill:url(#GradientFill_5-3);}.cls-9{fill:url(#GradientFill_6-3);}.cls-10{fill:url(#GradientFill_7);}.cls-11{fill:#fff;}.cls-12{fill:url(#GradientFill_7-2);}.cls-13{fill:url(#GradientFill_7-3);}.cls-14{fill:url(#GradientFill_7-4);}.cls-15{fill:url(#GradientFill_7-5);}.cls-16{fill:#beef70;}.cls-17{fill:#515755;}.cls-18{fill:#8dc63f;}.cls-19{fill:#1f1f21;}.cls-20{fill:url(#GradientFill_13);}.cls-21{fill:#be7f38;}.cls-22{fill:#dda551;}.cls-23{fill:#747d73;}.cls-24{fill:#fff5ea;}</style><linearGradient id="GradientFill_4" x1="173.53" y1="905.13" x2="56.74" y2="1124.77" gradientTransform="translate(-673.52 740.15) rotate(-100.55)" gradientUnits="userSpaceOnUse"><stop offset="0" stop-color="#acbac7"/><stop offset="0.05" stop-color="#d1d8e1"/><stop offset="0.1" stop-color="#fff"/><stop offset="0.15" stop-color="#e3e4e5"/><stop offset="0.27" stop-color="#c5c7c9"/><stop offset="0.85" stop-color="#a6a8ab"/><stop offset="0.95" stop-color="#6c7680"/><stop offset="1" stop-color="#384653"/></linearGradient><radialGradient id="GradientFill_5" cx="120.38" cy="1091.6" r="11.37" gradientTransform="translate(-673.52 740.15) rotate(-100.55)" gradientUnits="userSpaceOnUse"><stop offset="0" stop-color="#fff"/><stop offset="0.51" stop-color="#b2b4b7"/><stop offset="1" stop-color="#58595b"/></radialGradient><radialGradient id="GradientFill_6" cx="128.32" cy="1083.66" r="10.94" gradientTransform="translate(-673.52 740.15) rotate(-100.55)" gradientUnits="userSpaceOnUse"><stop offset="0" stop-color="#d0d2d3"/><stop offset="0.08" stop-color="#c2c4c5"/><stop offset="0.38" stop-color="#959698"/><stop offset="0.64" stop-color="#747577"/><stop offset="0.85" stop-color="#5f6062"/><stop offset="1" stop-color="#58595b"/></radialGradient><radialGradient id="GradientFill_5-2" cx="154.77" cy="1033.4" r="12.28" xlink:href="#GradientFill_5"/><radialGradient id="GradientFill_6-2" cx="160.06" cy="1025.47" r="10.55" xlink:href="#GradientFill_6"/><radialGradient id="GradientFill_5-3" cx="186.52" cy="975.19" r="12.28" xlink:href="#GradientFill_5"/><radialGradient id="GradientFill_6-3" cx="194.46" cy="967.26" r="10.56" xlink:href="#GradientFill_6"/><linearGradient id="GradientFill_7" x1="225.16" y1="925.71" x2="75.48" y2="1110.56" gradientTransform="translate(-673.52 740.15) rotate(-100.55)" gradientUnits="userSpaceOnUse"><stop offset="0" stop-color="#acbac7"/><stop offset="0.18" stop-color="#c6cdd6"/><stop offset="0.37" stop-color="#e3e4e5"/><stop offset="0.77" stop-color="#929497"/><stop offset="1" stop-color="#404041"/></linearGradient><linearGradient id="GradientFill_7-2" x1="199.82" y1="937.71" x2="73.24" y2="1094.02" xlink:href="#GradientFill_7"/><linearGradient id="GradientFill_7-3" x1="149.83" y1="914.13" x2="30.93" y2="1060.95" xlink:href="#GradientFill_7"/><linearGradient id="GradientFill_7-4" x1="129.81" y1="923.49" x2="29.22" y2="1047.7" xlink:href="#GradientFill_7"/><linearGradient id="GradientFill_7-5" x1="135.08" y1="947.24" x2="60.01" y2="1043.32" xlink:href="#GradientFill_7"/><linearGradient id="GradientFill_13" x1="-197.16" y1="798.07" x2="7.03" y2="876.45" gradientTransform="translate(-673.52 740.15) rotate(-100.55)" gradientUnits="userSpaceOnUse"><stop offset="0" stop-color="#f0e85a"/><stop offset="0.5" stop-color="#e5e345"/><stop offset="1" stop-color="#7dbf45"/></linearGradient></defs><path class="cls-1" d="M440.89,145.62c-15.45,35.62-35.71,67.3-46.28,104.14-5.68,19.46-6,41.62-5.24,64.53.22,11.59,1.83,22.33,5.16,30.82,14.93,37.52,47.49,50.06,46.91,54.24-1,7.94-4.8,17.94-12.3,23.4a3.21,3.21,0,0,1,.91,1.77l-14.87-2.85L288.63,377.8c-24.18-8.08-49.84-13.77-69.79-25.17-3.45-1.88-5.47-4.4-7.53-7.12l0-.19c.15-.22.87-.55,1.17-1-.87-27.55,44.23-21.61,62.4-29.06,84.15-35,71.24-148.12,95.88-219.75C382.15,62.2,398.57,38,418.32,33.77c17.69-3.88,32.43,8.69,37,27C462.09,87.81,451.76,120.73,440.89,145.62Z"/><path class="cls-2" d="M414.14,421.28c4.64-6.29,6-13.52,10.66-20.78-26.09-24.59-42.16-41.17-47.93-61.79-7.74-28-11.49-77.31,17.74-129.43,3.06-5.43,41-69.26,46.92-119.58,2.72-22.79-1-42.63-16.46-52-65.84,14.78-56.42,129.86-74.36,183.38-19.29,57.65-48.44,116.56-117.58,107.35-9.82,7.64-14.17,14.45-13.18,24.92a4.3,4.3,0,0,1-1.11-.76c-3.45-1.88-5.47-4.4-7.53-7.12l0-.19c.15-.22.87-.55,1.17-1-.87-27.55,44.23-21.61,62.4-29.06,84.15-35,71.24-148.12,95.88-219.75C382.15,62.2,398.57,38,418.32,33.77c17.69-3.88,32.43,8.69,37,27,6.77,27-3.56,59.94-14.43,84.83-15.45,35.62-35.71,67.3-46.28,104.14-5.68,19.46-6,41.62-5.24,64.53.22,11.59,1.83,22.33,5.16,30.82,14.93,37.52,47.49,50.06,46.91,54.24-1,7.94-4.8,17.94-12.3,23.4a3.21,3.21,0,0,1,.91,1.77l-14.87-2.85Z"/><path class="cls-3" d="M430.05,424.52l-14.87-2.85L288.63,377.8c-24.18-8.08-49.84-13.77-69.79-25.17a22.78,22.78,0,0,1-7.75-7.27c-.15.21-.3.44-.5.48-.67.5-2.19-.37-2.77.71-6.45,10.11-15,48.33-16.31,58.07-1.33,10.51-18.18,40.77-13,53a1.17,1.17,0,0,0,.55.87.69.69,0,0,0,.6.08,5.91,5.91,0,0,1,1.82.43h0c.23.16.63.28.67.46,17.56,8.94,58.45,21.48,99.55,37.27,42.75,16.26,86,35.33,108.82,35l0-.19c9.39,2.52,29.19-70.15,34.14-84.05C428,438.27,432.1,430.34,430.05,424.52Z"/><path class="cls-4" d="M378.52,417.26a4.79,4.79,0,0,1-4.67,5.13,5.2,5.2,0,0,1-5.2-5,4.93,4.93,0,0,1,4.63-5.32,5.51,5.51,0,0,1,5.24,5.23Z"/><path class="cls-5" d="M377.47,416.87a4.07,4.07,0,0,1-4,4.62,4.68,4.68,0,0,1-4.5-4.39,4.13,4.13,0,0,1,4-4.44,4.45,4.45,0,0,1,4.46,4.21Z"/><path class="cls-6" d="M314.88,396a4.92,4.92,0,0,1-4.63,5.31,5.47,5.47,0,0,1-5.39-5,4.93,4.93,0,0,1,4.63-5.32,5.3,5.3,0,0,1,5.39,5Z"/><path class="cls-7" d="M313.86,395.78a4.24,4.24,0,0,1-4,4.61,4.52,4.52,0,0,1-4.49-4.39,4.16,4.16,0,0,1,4-4.62,4.51,4.51,0,0,1,4.49,4.4Z"/><path class="cls-8" d="M251.28,373.91a4.73,4.73,0,0,1-4.62,5.32,5.21,5.21,0,0,1-5.21-5,4.94,4.94,0,0,1,4.63-5.32,5.2,5.2,0,0,1,5.2,5Z"/><path class="cls-9" d="M250.47,373.68a4.28,4.28,0,0,1-4,4.62,4.54,4.54,0,0,1-4.5-4.4,4,4,0,0,1,3.8-4.58,4.67,4.67,0,0,1,4.69,4.36Z"/><path class="cls-10" d="M211.07,377.52c13.06,4.54,176.39,60.75,185.35,64.11s5.74-1.46-1.79-3.35S218.93,377,212.27,374.58c-5.4-1.89-6.36,1.19-1.2,2.94Z"/><path class="cls-11" d="M213.23,377.7c13.25,4.52,176.21,60.78,185.17,64.14,8.8,3.6-177.37-62.88-184-65.32S207.84,375.8,213.23,377.7Z"/><path class="cls-12" d="M233,398.63C243,402,365.08,444,371.77,446.61s4.51-1.81-1.15-3.08S239,397.51,234,395.73c-3.94-1.41-4.73,1.65-1,2.9Z"/><path class="cls-11" d="M234.77,398.68c9.9,3.2,131.88,45.39,138.57,48S240.52,399.36,235.5,397.39C230.71,395.57,230.65,397.33,234.77,398.68Z"/><path class="cls-13" d="M210.12,446.29c10.59,3.84,140.32,51.18,147.45,54.12,7.1,2.74,4.46-1-1.46-2.64C350.16,496,216.47,446.08,211.24,444c-4.36-1.51-5.09.76-1.12,2.34Z"/><path class="cls-11" d="M211.91,446.54c10.56,3.65,140.13,51.21,147.26,54.15,7.1,2.75-141.07-53.17-146.28-55.11C207.47,443.49,207.72,444.8,211.91,446.54Z"/><path class="cls-14" d="M227.67,463.56c7.93,3,105.15,38.16,110.42,40.47,5.25,2.13,3.42-1.41-1-2.52s-104.48-38.67-108.44-40.26c-3.32-1.12-3.83,1.3-.94,2.31Z"/><path class="cls-11" d="M229.06,463.69c7.88,2.79,105,38.19,110.19,40.32,5.28,2.31-105.64-39.81-109.43-41.43C225.84,461,225.94,462.52,229.06,463.69Z"/><path class="cls-15" d="M246.91,449.32c6,2,80.12,27.52,84.32,29.25,4,1.58,2.51-1.05-1-1.95-3.24-.76-79.8-28-82.75-29.15-2.48-.91-2.92.93-.62,1.85Z"/><path class="cls-11" d="M247.89,449.33c6,2,80.14,27.71,84.12,29.29,4.16,1.55-80.57-29-83.51-30.17C245.37,447.28,245.58,448.4,247.89,449.33Z"/><path class="cls-16" d="M234.87,754,251.15,752c21-29.86,36.6-63.58,49.19-100-19,46.94-40.4,82.7-65.47,102.09ZM182,727.24l8.93-5.16.66-11L182,727.24Zm28.78,16.15,11.8-2.2,2.2-19.4-14,21.6Zm-49.26-57.48c2-1.55,4.42-3.35,6.76-5.33,6-12.55,11.55-25.4,16.91-38.23,9.77-23.51,7.4-17.45-.85-.41-5.58,11.69-13.94,28.16-22.82,44ZM176,674.11c2.07-4.46,4.19-8.73,6.52-12.84L178,672.38a.67.67,0,0,0-.35.26,14.75,14.75,0,0,0-1.66,1.47Zm.38,2.06-7.09,17-3,1.71c2.2-4.86,4.42-9.54,6.61-14.4,1.26-1.59,2.55-3,3.46-4.32ZM160.9,694.94Zm147.52,34.72c19-38.22,30.94-90.82,30.62-88.43-4.85,35.39-13.74,80.25-31.86,114,4.61-3.38,8.93-8.25,13-14.25L319,744.94l-13.22,13.31a16.57,16.57,0,0,0-1.09-10.07c5.49-11.1,13.83-28.73,13.83-28.73a136.63,136.63,0,0,1-10.68,18.65C308.12,735.34,308.38,732.57,308.42,729.66Z"/><path class="cls-17" d="M390.52,531.67c-18.68-.4-61.53-17.22-110.34-35.84C248,483.4,213.2,471.1,181.48,459,174.1,514,106,610.41,51.87,628.63c10.92,1.45,21.55-2.85,31.33-7.58-5.3,8-16.41,14.88-25.61,16.4,5.74.67,10.28-1.92,15.66-1.17l-8.12,4.22c9.91,1.25,4.36,2.68,3.33,10.62-1.17,9.32,10.25,7.2,14.63,9.87,10.33,6.59,3.63,13.27,19.39,10.53,14.57-2.91,4.11,8.54,11.37,13.18a41.54,41.54,0,0,1,6,5.28c1.25-.62,2.52-1.05,3.57-1.63,0,0,10.32,7.58,25.8,17.86,13.27-20.29,27-47.45,35.12-64.27,8.25-17,10.62-23.1.85.41-9.07,22-18.93,44-31,64.68-1.76,3,1,3.11,3.63,5,8.74-16.56,16-35,24.66-50.71l-21.81,52.5c8.6,5.56,12.6,8.31,21.49,13.43l9.44-15.9-1.39,20.6c6.93,4,13.64,7.73,20.7,11.26l13.42-20.52-3,25.74c3.38,1.51,11.33,4.67,13.63,5.6,30.86-24.73,47.31-56.08,65.34-102.84-10.71,35.12-26.74,80.15-46.88,108.32,12.19,2.95,22.29,4.18,30.93,3.73,32.45-24.45,54.94-125.32,54.6-122-4.85,35.39-13.74,80.25-31.86,114,32-23.79,56.2-121.68,68.43-167.36C380.64,569.15,385.71,550.58,390.52,531.67Z"/><path class="cls-18" d="M360.34,643.27c-91-56.88-229.5,5.72-227.22-84-24.57,32.47-54.64,60.36-81.25,69.38,10.92,1.45,21.55-2.85,31.33-7.58-5.3,8-16.41,14.88-25.61,16.4,5.74.67,10.28-1.92,15.66-1.17l-8.12,4.22c9.91,1.25,4.36,2.68,3.33,10.62-1.17,9.32,10.25,7.2,14.63,9.87,10.33,6.59,3.63,13.27,19.39,10.53,14.57-2.91,4.11,8.54,11.37,13.18a41.54,41.54,0,0,1,6,5.28c1.25-.62,2.52-1.05,3.57-1.63,0,0,10.32,7.58,25.8,17.86,13.27-20.29,27-47.45,35.12-64.27,8.25-17,10.62-23.1.85.41-9.07,22-18.93,44-31,64.68-1.76,3,1,3.11,3.63,5,8.74-16.56,16-35,24.66-50.71l-21.81,52.5c8.6,5.56,12.6,8.31,21.49,13.43l9.44-15.9-1.39,20.6c6.93,4,13.64,7.73,20.7,11.26l13.42-20.52-3,25.74c3.38,1.51,11.33,4.67,13.63,5.6,30.86-24.73,47.31-56.08,65.34-102.84-10.71,35.12-26.74,80.15-46.88,108.32,12.19,2.95,22.29,4.18,30.93,3.73,32.45-24.45,54.94-125.32,54.6-122-4.85,35.39-13.74,80.25-31.86,114C329,739,347.22,688.34,360.34,643.27Z"/><path class="cls-19" d="M387.13,544.7l-25.25,83.94,22.81-88.72-21.75,73.61,15.2-61-26.27,84.72-.41-.12,26.41-95.4c2.26-9.72.1-4.67-1.68-.66L355.41,606.4,367,543.79c1.53-8.42.79-8.28-2.09.19L330,629a12.1,12.1,0,0,0-2.9-1l30.05-85.23c.63-8.07-1.61-5.52-4.5-1.29l-13,32.06,8.63-33.76L317.8,622.9l-.6-.08,27.44-82.61-14.33,29.21c4.26-11.45,8.49-23.09,6.7-34.76l-2.09.18c-7.64,29.72-18.22,58.23-30.22,86.43a1.45,1.45,0,0,0-1-.2c11-28.21,19.81-57,23.39-87.67-5.61,19.84-23.74,66-36.09,85l-.19,0c12.7-20.2,29.7-67.35,32-87.15,4.56-23.33-10.37,15.1-11.75,18.07.27-.63,11.27-35.23,3.81-22.21a476.91,476.91,0,0,1-36.05,89.44l-.59-.08c14.05-28.58,24.94-58.5,31-90.63l-1.47.47c-7,26.09-17.65,48.81-28.82,71,11.22-23,20.76-46.68,23.47-72.76-12.32,21.28-30.82,58.24-45.9,90.69l-.63-.26c14.26-32.69,31.76-69.86,42.43-91.6,2.74-7.11,2.38-13.23-2.35-3.25-1.93,4.23-13.84,29.7-16,33.59,3.19-9.89,12.6-29.08,15.79-39l-43.66,86,36.11-79.78-22.93,44.38,18.23-47.76c2.44-8.79,1.21-9.14-4-.61l-43,95.77-.79,0,39-93.3-10.27,19.75,6.44-25.82-34.1,69.71,27.59-72.36-11.24,18.75c.53-2.42,12.27-45.49,2.19-23.65C241,543.42,225.84,579.57,208.81,612l-.78,0c16.3-32.1,30-67,41.69-103.86-13.38,17.6-21.05,37.83-28.46,58.38.59-2,13.23-42.38,23.75-60.8,2.94-5,1.42-5.89-1.44-1.47-6.31,10.86-20.47,42-21.82,45.13L234.4,505.9,195.21,609.69l35.68-107-22.1,49.84,12.66-50.6L196.22,575.6l21.52-75.9-18.57,44.92L212,505.23c6.51-20.2,1.55-20.82-3.77-.46-9,35-23.06,65.52-38.84,94.23,15.31-32.31,28.52-65.38,34.59-100.41L177.89,563.5l18-56.06-29.4,76.2L195.18,494l-10.79,24.29c20.85-67-36,85.38-5.93,2.46,3.33-9.15,7.6-20.59,9-33.83-9.72,31.06-29.63,67.71-48.71,97.42-.74-.84-.51-1.65-1.09-2.7,19.82-32,40.66-70.94,45.24-97.37-9.66,23.12-28.74,60-47.93,89.15a1.1,1.1,0,0,1-.32-.72C157.07,536,181.09,486,181.48,459c.23.16.63.28.67.46,17.56,8.94,58.45,21.48,99.55,37.27,41.94,16,84.32,34.48,107.47,35l1.23.36-3.27,12.62ZM178.84,458.31c.44.31.63.28.82.24Z"/><path class="cls-19" d="M379.27,574.26C345.48,553,296,554.88,257.43,554.7c-27.87.15-71.41-18.29-93-45.84,9.05-18,15.12-35.37,17.06-49.88,31.72,12.12,66.56,24.42,98.7,36.85,48.81,18.62,91.66,35.44,110.34,35.84C386.78,545.92,383,560,379.27,574.26Z"/><path class="cls-20" d="M243.6,746.77l22-37.81-30.38,45c2.88-2.28,5.71-4.74,8.36-7.17ZM235.05,754l-4.6-1.86L241.58,738,235.05,754Zm-4.6-1.86-3.38-1.5L250,711.29l-19.52,40.83Zm-7.13-2.93-1.9-.81c.84-6.94,8.5-17.86,11.94-24.31l-10,25.12Zm-12.21-6.25-3.71-2.22,3.42-9.74-7.17,8.31c2.37,1.3,4.74,2.6,7.31,3.87l.15-.22Zm-16.29-8.4-2.16-1.15c14.49-15.87,23.87-33.12,32-50.72-7.27,19.18-15.85,37.63-29.86,51.87Zm-20.46-12.08c6.93-9.62,13-19.66,13.87-31.65-2.59,12.11-9.41,21.33-17.14,29.74l3.27,1.91Zm-8.12-5.07c10.14-25.73,22.21-49.29,40-66.95-19,15.74-32.79,38.27-43.57,64.7l3.52,2.25Zm-24.07-15.87A282.76,282.76,0,0,0,178,617.34,248.46,248.46,0,0,1,137.25,698l4.92,3.54Zm-9.37-6.59-2.66-1.83,15.64-27.32-13,29.15Zm-17.18-9a27.07,27.07,0,0,1-2.7-2c16.33-14.28,30.5-31.83,40.2-55.73-7.27,24.42-21,42.46-37.5,57.74Zm-8.76-14.83a23.72,23.72,0,0,0-5.13.57c22.23-22.16,37.61-46.73,47.19-73.3l.22.15c-8.53,27-21.79,51.52-42.28,72.58Zm-7.6.83-.44-.3c4.72-15.22,10.52-29.86,23.83-41.64-15.07,11.72-21.12,26-27,40.29a23.11,23.11,0,0,1-7.46-6.74c3.33-11.28,8.85-21.23,19.46-27.65-13.22,5-19.14,14.8-22.91,25.76-8-3.72-11.56-3.85-14.1-12.29l18.07-21.57c-9.48,7.38-18.53,10.81-20.26,23.34-1.17,9.32,10.25,7.2,14.63,9.87C92.56,667.17,87.51,673.34,99.26,671.92Z"/><path class="cls-21" d="M423,38.12c-57.44,15.16-53.52,111.11-73.69,189.08-12.77,50-37,93.69-89.25,101.29-16.77,2.54-31.57-6.14-39,14.43A23.39,23.39,0,0,0,220,353.39a4.3,4.3,0,0,1-1.11-.76c-3.45-1.88-5.47-4.4-7.53-7.12l0-.19c.15-.22.87-.55,1.17-1-.87-27.55,44.23-21.61,62.4-29.06,84.15-35,71.24-148.12,95.88-219.75C382.15,62.2,398.57,38,418.32,33.77a27.58,27.58,0,0,1,11.59-.22l-6.45,3.91Z"/><path class="cls-21" d="M418.09,39.82c-19.56,7.32-30.7,21.41-37.09,39.07-18.65,42.42-18.19,106.27-30.29,142.23-16.65,50-40.87,101-92.14,107.64-16.65,2.13-26.67-5.88-36.09,11.19A21.8,21.8,0,0,0,220,353.39L231.27,359c6.87-24.54,33.34-15.51,53-30.6,31.56-18.86,51.1-50.21,64.16-85.2C367.37,193,362.21,75.8,415.2,57.6c36.45,24,4.22,93.38-10.86,122.74-26.78,47.61-37.29,84.82-36.69,118.23.64,33.59,18.82,79.24,44.77,103.07,4.9,4.52-1.62,9-3,13-.7,2.45,2.45,3.8,4.68,7.45,0,.19,2.66-5.53,2.76-5,6.48-4.68,6.56-10.52,7.95-16.59-16.19-16.17-27.09-27.89-34.23-41.29-19.62-36.64-13.66-94.14.7-131.49,19.26-49.51,53.67-83.24,57-137.14,2.73-22.79-7.72-43.51-23.21-52.84A44.26,44.26,0,0,0,418.09,39.82Z"/><path class="cls-22" d="M418.09,39.82c-19.56,7.32-30.7,21.41-37.09,39.07C360.92,122,355.39,192.16,347.09,226.64c-17.07,50.84-41.47,92.59-94.55,97.82-15.64,1.37-22.52-1.23-30.75,17a22.26,22.26,0,0,0-1.84,12L231.27,359c6.87-24.54,33.34-15.51,53-30.6,31.56-18.86,51.1-50.21,64.16-85.2C367.37,193,362.21,75.8,415.2,57.6c.19,0,.41.12.63.27l.12-.41,7.25-19.37A45,45,0,0,0,418.09,39.82Z"/><path class="cls-23" d="M429.36,422.91l-14.05-2.62L288.9,376.2c-24.2-8.28-49.86-14-69.81-25.36a25,25,0,0,1-7-6.44c-.31.45-.64.7-.94,1.15a23.7,23.7,0,0,0,7.71,7.08c19.95,11.4,45.61,17.09,69.79,25.17l126.55,43.87c3,.6,11.2,2.95,14.61,2.51A2.72,2.72,0,0,1,429.36,422.91Z"/><path class="cls-24" d="M232.93,357.57c4.68-12.31,13.72-14.77,26.32-17.89,46-11.08,73.57-54.39,89.22-96.24,12.75-37.64,14.32-82.31,24.66-121.42C381.2,91.45,393,66.57,415,58.79l.89.61a19.65,19.65,0,0,1,.73-2.27l-1.32-.91c-23.84,8.31-36.62,36.46-44,65.35-10.24,39.69-10.23,81.35-24.32,121.17-15,43.1-43.63,84.08-88.35,94.74-12.22,3-23,5.63-27.82,19.12A15.52,15.52,0,0,1,232.93,357.57Z"/><path class="cls-22" d="M414.85,58.82l.19,0c35.31,24.24,2.76,92.88-11.55,121.12-20.43,36-37.67,76.57-37,118.69.8,35.5,18.9,79.59,45.32,103.93,4.47,4.22-3.58,7.84-3.2,13,2.9-4.21,10.95-8.81,4.64-14.61-29.71-27.4-43.3-65-43.83-103.25-.59-51,15-75.64,35.89-117.32,21.3-42.71,46.28-100.06,10-124.12l-.54.29A9.37,9.37,0,0,1,414.85,58.82Z"/><path d="M378.37,573.65a13.17,13.17,0,0,1-2-1.19c2.84-10.8,5.45-21.75,8.28-32.54-3.06,10.64-6.29,21.32-9.35,32a12,12,0,0,1-1.72-.84c1.55-6.3,3.13-12.4,4.52-18.48-1.8,6-3.6,11.91-5.58,17.89-.67-.45-1.49-.68-2.16-1.14,2.55-9.2,4.92-18.36,7.47-27.55,2.26-9.72.28-4.7-1.68-.66-2.77,9-5.76,17.94-8.54,27-1.66-.65-3.15-1.34-4.83-2,1.33-7.42,2.66-14.83,4.18-22.29,1.53-8.42.79-8.28-2.09.19-2.85,6.55-5.48,13.24-8.29,20a58.79,58.79,0,0,0-6.37-1.91l6.87-19.3c.63-8.07-1.61-5.52-4.5-1.29-2.48,6.47-5.18,12.78-7.88,19.09a6.73,6.73,0,0,1-1.83-.43c1.85-6.74,3.66-13.66,5.32-20.36q-3.66,10-7.33,20c-.81-.24-1.79-.25-2.61-.49,2.1-6.39,4.21-12.79,6.35-19-3.11,6.2-6,12.36-9.14,18.55l-1.23-.35c2.42-7.81,4-15.86,2.74-23.75a7.68,7.68,0,0,0-2.09.18c-2.09,7.57-4.12,15.31-6.43,22.72-1.79-.26-3.58-.5-5.14-.6,1.44-7.83,2.71-15.62,3.74-23.56-1.61,5.92-4.36,14-7.89,23.17a11.17,11.17,0,0,0-2.39-.33,148.84,148.84,0,0,0,6-25c2.2-11.07.81-11.2-3.81-.65-2.54,6.09-5.24,12.41-7.94,18.72,2.19-7,4.15-14.14,6.33-21.13.6-8.25-1.22-3.45-2.52-1.08-2.86,9.64-5.75,19.08-9.08,28.23-1.16,0-2.36-.14-3.51-.12,2.66-9.6,5.11-19.36,6.93-29.38a3.49,3.49,0,0,0-1.47.47,269.84,269.84,0,0,1-9.57,28.71c-.6-.08-1.35.05-1.95,0a164.78,164.78,0,0,0,6.17-30.41c-4.7,8-10.3,18.58-16.29,30.15-1,0-1.94,0-2.72-.06,5.54-11.89,10.69-22.73,14.91-31.26,2.74-7.11,2.38-13.23-2.35-3.25-1.93,4.23-13.84,29.7-16,33.59,3.19-9.89,12.6-29.08,15.79-39-6.64,13.25-13.46,26.52-20.09,39.77a11,11,0,0,1-2.7.12l15.24-33.65c-5.87,11.17-11.73,22.34-17.56,33.7a9.39,9.39,0,0,0-1.38-.13c4.68-12.31,9.56-24.65,14.24-36.95,2.44-8.79,1.21-9.14-4-.61-5.62,12.47-11.24,25-16.83,37.62-1,0-1.75-.06-2.72-.07,5-11.6,9.8-23.35,14.77-35.12-3.41,6.64-6.86,13.1-10.27,19.75,2.09-8.53,4.34-17.28,6.44-25.82-6.58,13.64-13.33,27.28-20.09,40.95-1,0-2-.22-2.95-.23,5.42-14.57,11.07-29,16.53-43.37-3.86,6.33-7.57,12.44-11.24,18.75q2.63-10.95,5.23-21.9c2.39-11.1,1.5-11.71-3-1.75-6,15.64-12.22,31.14-18.51,46.26a10.71,10.71,0,0,0-2.23-.56q7.95-21.24,15.14-43.5c-9.65,12.64-16.31,26.87-22.1,41.5-.22-.15-.42-.11-.64-.26,4.82-13.69,11.76-32.61,18-43.66,2.94-5,1.42-5.89-1.44-1.47-5.7,10-18,36.47-21.13,43.65l-.19,0c4-14.12,8-28,12.15-42-5.22,13.57-10.26,27.1-15.3,40.63-.82-.23-1.67-.65-2.49-.89,4.7-14.25,9.6-28.52,14.28-43-6.16,13.74-12.32,27.49-18.29,41.19a3.42,3.42,0,0,1-1.49-.69c3.47-13.63,6.9-27.44,10.34-41.26-4.51,13.24-9,26.47-13.68,39.94a11.36,11.36,0,0,0-1.71-.84c3.84-13.7,7.84-27.62,11.68-41.32-5.33,13-10.85,26.05-16.2,38.86-.19,0-.23-.15-.42-.12,3.55-11.12,7.14-22.05,10.87-33.21,6.51-20.2,1.55-20.82-3.77-.46-2.79,11-6.22,21.7-9.91,32.07-1.08-.57-2.19-1.34-3.26-1.91A277.25,277.25,0,0,0,204,498.59c-4.49,11.29-9,22.4-13.51,33.52l-2-1.37c2.42-7.82,5.06-15.48,7.48-23.3L187.34,530a30.34,30.34,0,0,1-2.92-2.17c3.51-11.31,7.24-22.47,10.76-33.78-3.55,8-7.24,16.27-10.79,24.29,10.07-32.29,2.13-13.57-5.63,5.12a4.16,4.16,0,0,1-.93-.79,7.78,7.78,0,0,1,.63-1.87c3.33-9.15,7.6-20.59,9-33.83a295.18,295.18,0,0,1-12.88,32.81,13.31,13.31,0,0,1-2.36-2.27c5.13-12,9-23.57,10.68-33.19-3.48,8.4-8.33,18.8-14,29.94-.73-.84-1.5-1.86-2.24-2.69,8.64-20.21,14.61-39.14,14.82-52.56l0,.19a1,1,0,0,1,.63.27h0c17.56,8.94,58.45,21.48,99.55,37.27,41.94,16,84.32,34.48,107.47,35l1.23.36c-.15.22-.12.4-.27.62h0c0,.19,0,.19.07.38l-.19,0,0,.18,0,.19-.2,0c0,.18,0,.18.07.37l-.15.22a.55.55,0,0,1-.12.41h0l0,.19-.16.22h0l0,.18c-.12.41-.23.83-.35,1.24,0,.18,0,.18-.15.22l0,.18a.18.18,0,0,1-.15.22h0l0,.19,0,.18-.2,0a.72.72,0,0,1-.08.61l0,.18c-.12.41-.23.82-.35,1.23l0,.18-.19,0,0,.19h0c-.11.4-.08.59-.2,1l-.16.22h0l.05.18,0,.19h0a22.28,22.28,0,0,0-.94,3.28C384.09,554.37,381.23,564,378.37,573.65Z"/><path d="M390,533.9c-65.31-5.28-140.71-57.5-209.45-68.73a30.37,30.37,0,0,1,1-6.19l0,.19a1,1,0,0,1,.63.27h0c20.15,8.26,41,15,61.34,22.49,28.3,10.42,56.07,21.14,83,31.43,25.43,9.61,48.16,17.2,62.71,18.36l1.23.36c-.15.22-.12.4-.27.62h0c0,.19,0,.19.07.38l-.19,0,0,.18,0,.19-.2,0C389.93,533.71,389.93,533.71,390,533.9Z"/><path class="cls-11" d="M420.64,81.58c2.23,5.79-.47,12.1-5.91,14.09-5.59,2.2-11.75-.72-14-6.51a10.67,10.67,0,0,1,6.09-14.11C412.23,72.88,418.39,75.8,420.64,81.58Z"/><path class="cls-2" d="M416.2,92.1a10.81,10.81,0,0,1-14-6.5,12.35,12.35,0,0,1-.44-6.5,11.72,11.72,0,0,0-1,10.06c2.25,5.79,8.41,8.71,14,6.51a10.21,10.21,0,0,0,6.34-7.58A9,9,0,0,1,416.2,92.1Z"/></svg>