<svg id="Capa_1" data-name="Capa 1" xmlns="http://www.w3.org/2000/svg" xmlns:xlink="http://www.w3.org/1999/xlink" viewBox="0 0 500 334.44"><defs><style>.cls-1{fill:url(#Degradado_sin_nombre_15);}.cls-2{fill:url(#Degradado_sin_nombre_15-2);}.cls-3{fill:url(#Degradado_sin_nombre_15-3);}.cls-4{fill:url(#Degradado_sin_nombre_15-4);}</style><linearGradient id="Degradado_sin_nombre_15" x1="104.77" y1="162.84" x2="450.85" y2="162.84" gradientUnits="userSpaceOnUse"><stop offset="0" stop-color="#fe7b1d"/><stop offset="0.99" stop-color="#ffab00"/></linearGradient><linearGradient id="Degradado_sin_nombre_15-2" x1="97.52" y1="162.75" x2="164.44" y2="162.75" xlink:href="#Degradado_sin_nombre_15"/><linearGradient id="Degradado_sin_nombre_15-3" x1="0" y1="162.9" x2="66.25" y2="162.9" xlink:href="#Degradado_sin_nombre_15"/><linearGradient id="Degradado_sin_nombre_15-4" x1="419.09" y1="162.86" x2="484.91" y2="162.86" xlink:href="#Degradado_sin_nombre_15"/></defs><path class="cls-1" d="M349.67,203.72c-16.85-6.21-32.65-12.41-48.76-17.67-3.53-1.15-8.37.42-12.22,1.81-38.33,13.77-76.52,27.95-114.88,41.65-28.85,10.3-52.45,3.82-69-18.58L237,162.68l-131.84-48.2c14.36-21.59,39.57-28.89,67.31-19,38.76,13.8,77.3,28.24,116.14,41.81a30.31,30.31,0,0,0,17.72,0c14.3-4.39,28.17-10.15,39.61-14.39-1.36-15.59-5-30-3.29-43.78,3.17-26.13,25.88-43.56,52.61-43.6,27.24,0,49.07,17,54.39,42.53,5.45,26.11-8,52.92-32,62.48-18.69,7.43-37.73,14-59.86,22.11l53.1,19.3c25.56,9.28,39,27,39.53,52,.47,23.41-11.78,42.74-32.85,51.83-20,8.61-44.27,4.29-59.67-10.59a55.35,55.35,0,0,1-13.3-60.22C345.86,211.65,347.5,208.5,349.67,203.72Zm14.42,31.2c-.06,18.68,13.58,32.5,32,32.38a32.39,32.39,0,0,0,32-31.69,32,32,0,0,0-31.24-32.29C378.27,203,364.15,216.66,364.09,234.92Zm32.12-113A31.9,31.9,0,0,0,428,89.05C427.66,71.92,413,58,395.39,58a31.43,31.43,0,0,0-31.32,31.84C364.11,108.46,377.77,122.13,396.21,122ZM297.33,146.3c-5.4,7.32-11.56,12.11-10.94,15.74.79,4.59,7.09,8.25,11,12.31,3.82-4.13,10-7.87,10.73-12.49C308.72,158.22,302.64,153.5,297.33,146.3Z"/><path class="cls-2" d="M97.52,172V153.49h66.92V172Z"/><path class="cls-3" d="M66.25,172.24H0V153.56H66.25Z"/><path class="cls-4" d="M484.91,172.36H419.09v-19h65.82Z"/></svg>