<svg id="Capa_1" data-name="Capa 1" xmlns="http://www.w3.org/2000/svg" xmlns:xlink="http://www.w3.org/1999/xlink" viewBox="0 0 500 500"><defs><style>.cls-1{fill:url(#Degradado_sin_nombre_35);}.cls-2{fill:url(#Degradado_sin_nombre_35-2);}.cls-3{fill:url(#Degradado_sin_nombre_35-3);}.cls-4{fill:url(#Degradado_sin_nombre_35-4);}.cls-5{fill:url(#Degradado_sin_nombre_35-5);}</style><linearGradient id="Degradado_sin_nombre_35" x1="97.19" y1="312.85" x2="401.51" y2="312.85" gradientUnits="userSpaceOnUse"><stop offset="0" stop-color="#fd4b19"/><stop offset="0.99" stop-color="#e9e413"/></linearGradient><linearGradient id="Degradado_sin_nombre_35-2" x1="249.93" y1="155.58" x2="390.64" y2="155.58" xlink:href="#Degradado_sin_nombre_35"/><linearGradient id="Degradado_sin_nombre_35-3" x1="172.74" y1="333.26" x2="253.66" y2="333.26" xlink:href="#Degradado_sin_nombre_35"/><linearGradient id="Degradado_sin_nombre_35-4" x1="234.29" y1="283.61" x2="264.02" y2="283.61" xlink:href="#Degradado_sin_nombre_35"/><linearGradient id="Degradado_sin_nombre_35-5" x1="313.86" y1="344.7" x2="339.59" y2="344.7" xlink:href="#Degradado_sin_nombre_35"/></defs><path class="cls-1" d="M286.5,163.87c-20.19,40-38.38,76.31-56.87,112.43a15.72,15.72,0,0,1-7.83,6.91c-13.25,4.93-20,14.88-23.17,27.93-2.46,10.12-4.53,20.33-7.26,30.37-1.47,5.41-4.64,9.14-11.43,7.49-2.79-.67-6-.24-8.89.19-18.07,2.66-29.76,12.58-29.84,25.13-.09,15.91,16.5,34.31,32.8,36.36,15.64,2,33.14-8.63,35.74-23.91,1.64-9.61,6.74-13.35,14.33-17.25,24-12.35,39-30.72,37.59-59.43a13,13,0,0,1,1.89-7.27Q300,246.65,336.7,190.62C394,224.77,416.75,291.7,391,350.84c-15.51,35.57-47.33,48.29-83.8,34.51-13.72-5.18-28.07-10.18-42.49-11.6-17.86-1.76-25.86,7.4-26.15,25.49-.19,11.93.87,23.87.59,35.79-.4,16.54-7.39,24.79-23.35,27.9-32,6.23-59.06-4.64-79.15-28.51-42.8-50.85-49.68-108.93-25.79-169.8,22.09-56.28,63-92.81,123.81-102.64C250.91,159.34,268.22,163,286.5,163.87Zm87.35,103c-.46-11.13-6.89-19.71-17.4-25.46C346.5,236,336,235,327.27,242.89c-8.46,7.65-17.25,15.88-22.6,25.66-3.2,5.84-2.56,16.51.76,22.6,6.38,11.68,28.05,16.82,41.21,12.29C360.58,298.64,373.85,281.43,373.85,266.89ZM207.16,251.47c27.72-1.27,45.3-22.58,38.21-47.16-4.25-14.71-16.53-22.33-31.64-19.63-19.41,3.48-38.21,29-34.56,48.4a21.51,21.51,0,0,0,9.12,13C193.72,249.29,200.79,249.78,207.16,251.47Zm-55.55,72.67c26.1-.25,42.5-18.9,38-43.18-3-16.19-16.52-25.44-32.72-22.29-16.47,3.2-24.89,14.49-30.35,29.4C117.51,312.58,125.51,324.39,151.61,324.14Zm174.11,49.22c16.1,0,29.28-13,29.14-28.88-.14-15.56-14.08-29.16-29.55-28.85A29.18,29.18,0,0,0,297,344.32,28.42,28.42,0,0,0,325.72,373.36Z"/><path class="cls-2" d="M390.64,40.63c-23.78,84.19-68.08,157.82-117.11,229.9l-23.6-16.77C287.59,176.26,330.37,102.75,390.64,40.63Z"/><path class="cls-3" d="M172.74,374.77c2.54-1.51,5.4-2.65,7.56-4.57,14.54-12.93,22.73-29.1,24.92-48.5a57,57,0,0,1,4.15-16.11A23.82,23.82,0,0,1,238.1,292.3c11.07,3.17,16.94,12.33,15.28,25.15a63.39,63.39,0,0,1-4.53,17.16C240.22,354.39,197.3,378.67,172.74,374.77Z"/><path class="cls-4" d="M264,284.41l-9,13.49L234.29,286c2.53-5.15,5.08-10.36,8.19-16.68Z"/><path class="cls-5" d="M339.59,346.79c-4.44,3.36-8.5,8.67-13.42,9.62-7,1.36-12.08-3.8-12.3-11.21-.22-7.22,3.67-12.11,11.37-12.42S336.65,336.93,339.59,346.79Z"/></svg>